# xmcd
#
# Track frame offsets:
#	150
#	20154
#	36543
#	52199
#	69826
#	87360
#	104789
#	119808
#	133152
#	145161
#	160145
#	174654
#	188405
#	205012
#	221003
#	234400
#	244080
#	254932
#	266623
#	284118
#	298705
#	315392
#	336036
#	348123
#
# Disc length: 4749 seconds
#
# Revision: 1
# Processed by: cddbd v1.4PL0 Copyright (c) Steve Scherf et al.
# Submitted via: audiograbber 1.80
#
DISCID=87128b18
DTITLE=J. Cash - ?
DYEAR=1900
DGENRE=
TTITLE0=the man comes around
TTITLE1=hurt
TTITLE2=give my love to rose
TTITLE3=bridge over troubled water
TTITLE4=i hung my head
TTITLE5=first time ever i saw your face
TTITLE6=personal jesus
TTITLE7=in my life
TTITLE8=sam hall
TTITLE9=danny boy
TTITLE10=desperado
TTITLE11=i'm so lonesome i could cry
TTITLE12=tear stained letter
TTITLE13=streets of lavedo
TTITLE14=we'll meet again
TTITLE15=i won't back down
TTITLE16=solifary man
TTITLE17=that lucky old sun
TTITLE18=one love
TTITLE19=noboay
TTITLE20=i see a darkness
TTITLE21=the mercy seat
TTITLE22=would you lay with me
TTITLE23=country trash
EXTD=
EXTT0=
EXTT1=
EXTT2=
EXTT3=
EXTT4=
EXTT5=
EXTT6=
EXTT7=
EXTT8=
EXTT9=
EXTT10=
EXTT11=
EXTT12=
EXTT13=
EXTT14=
EXTT15=
EXTT16=
EXTT17=
EXTT18=
EXTT19=
EXTT20=
EXTT21=
EXTT22=
EXTT23=
PLAYORDER=
